<?xml version="1.0" ?><svg viewBox="0 0 64 64" xmlns="http://www.w3.org/2000/svg"><g data-name="Layer 90" id="Layer_90"><path d="M60.35,15.3,50,4.94a.5.5,0,0,0-.71,0L46.71,7.5a.5.5,0,0,0,0,.7l5.13,5.14H4.75a.5.5,0,0,0-.5.5v20a.51.51,0,0,0,.5.5H8.39a.51.51,0,0,0,.5-.5V18h43L46.71,23.1a.51.51,0,0,0,0,.71l2.56,2.56a.51.51,0,0,0,.71,0L60.35,16a.49.49,0,0,0,.15-.36A.47.47,0,0,0,60.35,15.3Z"/><path d="M59.25,29.68H55.61a.51.51,0,0,0-.5.5V46H12.16l5.13-5.13a.51.51,0,0,0,0-.71l-2.56-2.56a.51.51,0,0,0-.71,0L3.65,48a.49.49,0,0,0-.15.36.47.47,0,0,0,.15.35L14,59.06a.49.49,0,0,0,.35.15.51.51,0,0,0,.36-.15l2.56-2.56a.5.5,0,0,0,0-.7l-5.13-5.14H59.25a.5.5,0,0,0,.5-.5v-20A.51.51,0,0,0,59.25,29.68Z"/></g></svg>