<?xml version="1.0" encoding="iso-8859-1"?>
<!-- Generator: Adobe Illustrator 19.0.0, SVG Export Plug-In . SVG Version: 6.00 Build 0)  -->
<svg version="1.1" id="Layer_1" xmlns="http://www.w3.org/2000/svg" xmlns:xlink="http://www.w3.org/1999/xlink" x="0px" y="0px"
	 viewBox="0 0 321.95 321.95" style="enable-background:new 0 0 321.95 321.95;" xml:space="preserve">
<g transform="translate(0 -562.36)">
			<path d="M111.85,807.341h-97.6c-18.9,0-18.9,28,0,28h97.6C130.75,835.341,130.75,807.341,111.85,807.341z"/>
			<path d="M210.05,688.441h64l-24.7,24.7c-13.6,13.1,6.3,33.6,19.4,19.9l49.3-48.8c5.2-5.8,5.2-14.2,0-19.9l-49.3-48.8
				c-2.7-2.6-5.8-4.2-10-4.2c-12.6,0-18.4,15.2-9.4,24.1l24.7,24.7h-64C191.15,660.141,191.15,688.441,210.05,688.441z"/>
			<path d="M307.55,807.041h-90.2l-93.4-140.6c-2.6-3.7-7.3-6.3-12.1-6.3h-64l25.2-24.7c8.9-8.9,2.6-24.6-10.5-24.1v0
				c-3.7,0-6.8,1.6-9.4,4.2l-48.8,48.8c-5.8,5.8-5.8,14.2,0,19.9l48.8,48.8c13.1,13.6,33.6-6.8,19.9-19.9l-25.2-24.7h56.7
				l93.9,140.6c2.6,3.7,6.8,6.3,11.5,6.3h97.6C326.45,835.341,326.45,807.041,307.55,807.041z"/>
		</g>
</svg>
